# Blender 3.4.1
# www.blender.org
mtllib shuttle.mtl
o Plane
v 1.000000 0.104710 1.016560
v 1.000000 0.104710 -1.016560
v -1.555432 0.000000 0.000000
v 0.000000 0.104710 1.016560
v 1.619854 0.184615 0.000000
v 0.000000 0.104710 -1.016560
v 0.000000 0.184615 0.000000
v -1.555432 0.000000 0.249343
v 0.500000 0.104710 1.016560
v 1.619854 0.184615 -0.249343
v -0.500000 -0.054295 -1.016560
v -1.555432 0.000000 -0.249343
v -0.500000 -0.054295 1.016560
v 1.619854 0.184615 0.249343
v 0.500000 0.104710 -1.016560
v 0.000000 0.184615 -0.249343
v 0.000000 0.184615 0.249343
v -0.500000 0.184615 0.000000
v 0.500000 0.184615 0.000000
v 0.500000 0.184615 0.249343
v -0.500000 0.184615 0.249343
v -0.500000 0.184615 -0.249343
v 0.500000 0.184615 -0.249343
v 1.216578 0.000000 -0.519371
v 0.000000 0.000000 -0.519371
v -1.277716 0.000000 -0.374014
v -0.500000 0.000000 -0.519371
v 0.500000 0.000000 -0.519371
v -1.277716 0.000000 0.374014
v 1.216578 0.000000 0.519371
v 0.000000 0.000000 0.519371
v 0.500000 0.000000 0.519371
v -0.500000 0.000000 0.519371
v 1.279437 -0.124795 0.000000
v -0.437142 -0.124795 0.000000
v 1.279437 -0.124795 -0.259685
v -0.437142 -0.124795 -0.520740
v -0.437142 -0.124795 0.520740
v 1.279437 -0.124795 0.259685
v -0.964858 -0.124795 0.000000
v -0.964858 -0.124795 -0.510370
v -0.964858 -0.124795 0.510370
v 1.619854 0.184615 0.250000
v 1.619854 0.184615 -0.250000
v 1.324868 0.092308 0.384357
v 1.324868 0.092308 -0.384357
v 1.248008 -0.062397 0.389528
v 1.279437 -0.124795 -0.260370
v 1.248008 -0.062397 -0.389528
v 1.279437 -0.124795 0.260370
v 1.286438 0.014955 -0.386942
v 1.284298 0.029910 -0.254514
v 1.286438 0.014955 0.386942
v 1.284298 0.029910 0.254514
v 1.270723 0.046154 0.451864
v 1.267223 -0.023721 0.388235
v 1.245868 -0.047442 0.257100
v 1.232293 -0.031199 0.454450
v 1.305653 0.053631 0.385650
v 1.322728 0.107263 0.251928
v 1.232293 -0.031199 -0.454450
v 1.305653 0.053631 -0.385650
v 1.322728 0.107263 -0.251928
v 1.270723 0.046154 -0.451864
v 1.267223 -0.023721 -0.388235
v 1.245868 -0.047442 -0.257100
v 1.245868 -0.047442 0.000000
v 1.322728 0.107263 0.000000
v 1.284298 0.029911 0.000000
vn -0.0000 0.9785 0.2061
vn -0.1568 0.9864 0.0500
vn -0.0000 1.0000 -0.0000
vn -0.0000 0.8255 0.5644
vn -0.1723 0.9850 -0.0000
vn -0.1258 0.8617 0.4915
vn -0.0203 0.9939 0.1085
vn -0.0000 0.8255 -0.5644
vn -0.1258 0.8617 -0.4915
vn -0.1568 0.9864 -0.0500
vn -0.0203 0.9939 -0.1085
vn -0.0000 0.9785 -0.2061
vn -0.0538 0.7049 0.7073
vn 0.1672 -0.2843 0.9440
vn 0.2067 0.9784 -0.0000
vn 0.1672 -0.2843 -0.9440
vn -0.0538 0.7049 -0.7073
vn 0.2519 -0.9677 -0.0000
vn 0.8928 -0.4457 0.0648
vn 0.9924 0.1227 0.0022
vn 0.3410 -0.9335 -0.1109
vn 0.8928 -0.4457 -0.0648
vn 0.9924 0.1227 -0.0022
vn 0.3410 -0.9335 0.1109
vn 0.8289 -0.3987 -0.3923
vn -0.8289 0.3987 -0.3923
vn 0.9173 0.3981 -0.0000
vn 0.8956 -0.4449 -0.0000
vt 1.000000 0.000000
vt 1.000000 1.000000
vt 0.000000 0.500000
vt 0.000000 0.000000
vt 0.500000 0.000000
vt 1.000000 0.500000
vt 0.500000 1.000000
vt 0.500000 0.500000
vt 0.000000 0.250000
vt 0.000000 0.000000
vt 0.750000 0.000000
vt 1.000000 0.750000
vt 0.250000 1.000000
vt 0.000000 0.750000
vt 0.000000 0.000000
vt 0.250000 0.000000
vt 1.000000 0.250000
vt 0.750000 1.000000
vt 0.500000 0.750000
vt 0.500000 0.250000
vt 0.250000 0.500000
vt 0.750000 0.500000
vt 0.750000 0.250000
vt 0.250000 0.250000
vt 0.250000 0.750000
vt 0.750000 0.750000
vt 1.000000 0.875000
vt 0.000000 0.000000
vt 0.500000 0.875000
vt 0.000000 0.000000
vt 0.000000 0.875000
vt 0.000000 0.000000
vt 0.250000 0.875000
vt 0.000000 0.000000
vt 0.750000 0.875000
vt 0.000000 0.000000
vt 0.000000 0.125000
vt 0.000000 0.000000
vt 0.000000 0.000000
vt 1.000000 0.125000
vt 0.500000 0.125000
vt 0.000000 0.000000
vt 0.750000 0.125000
vt 0.000000 0.000000
vt 0.250000 0.125000
vt 0.000000 0.000000
vt 0.000000 0.000000
vt 0.000000 0.000000
vt 0.000000 0.000000
vt 0.000000 0.000000
vt 0.000000 0.000000
vt 0.000000 0.000000
vt 0.000000 0.000000
vt 0.000000 0.000000
vt 0.000000 0.000000
vt 1.000000 0.375000
vt 1.000000 0.625000
vt 1.000000 0.187500
vt 0.500000 0.375000
vt 1.000000 0.812500
vt 0.000000 0.000000
vt 0.500000 0.062500
vt 0.000000 0.000000
vt 0.000000 0.000000
vt 0.000000 0.000000
vt 0.250000 0.187500
vt 0.500000 0.375000
vt 0.750000 0.125000
vt 0.500000 0.125000
vt 1.000000 0.156250
vt 0.625000 0.093750
vt 0.250000 0.062500
vt 0.000000 0.000000
vt 0.875000 0.156250
vt 0.750000 0.187500
vt 0.000000 0.000000
vt 0.375000 0.281250
vt 0.750000 0.562500
vt 1.000000 0.843750
vt 0.125000 0.093750
vt 0.250000 0.187500
vt 0.250001 0.125000
vt 0.750000 0.375000
vt 0.500001 0.250001
s 0
f 28/35/1 24/27/1 2/2/1 15/18/1
f 27/33/2 25/29/2 6/7/2 11/13/2
f 21/24/3 17/20/3 7/8/3 18/21/3
f 20/23/3 14/17/3 43/56/3 5/6/3 19/22/3
f 17/20/3 20/23/3 19/22/3 7/8/3
f 31/41/4 32/43/4 20/23/4 17/20/4
f 32/43/4 30/40/4 55/70/4 45/58/4 14/17/4 20/23/4
f 8/9/5 21/24/5 18/21/5 3/3/5
f 29/37/6 33/45/6 21/24/6 8/9/6
f 33/45/4 31/41/4 17/20/4 21/24/4
f 29/37/7 13/16/7 33/45/7
f 3/3/5 18/21/5 22/25/5 12/14/5
f 18/21/3 7/8/3 16/19/3 22/25/3
f 25/29/1 28/35/1 15/18/1 6/7/1
f 7/8/3 19/22/3 23/26/3 16/19/3
f 19/22/3 5/6/3 44/57/3 10/12/3 23/26/3
f 16/19/8 23/26/8 28/35/8 25/29/8
f 12/14/9 22/25/9 27/33/9 26/31/9
f 22/25/8 16/19/8 25/29/8 27/33/8
f 23/26/8 10/12/8 46/60/8 64/79/8 24/27/8 28/35/8
f 13/16/10 4/5/10 31/41/10 33/45/10
f 11/13/11 26/31/11 27/33/11
f 9/11/12 1/1/12 30/40/12 32/43/12
f 4/5/12 9/11/12 32/43/12 31/41/12
f 24/28/13 28/36/13 25/30/13 27/34/13 37/50/13 36/49/13 49/64/13 61/76/13
f 26/32/14 12/15/14 41/54/14 37/50/14 27/34/14
f 34/47/3 35/48/3 38/51/3 39/52/3 50/65/3
f 37/50/3 41/54/3 40/53/3 35/48/3
f 40/53/15 3/4/15 8/10/15 42/55/15
f 41/54/15 12/15/15 3/4/15 40/53/15
f 36/49/3 37/50/3 35/48/3 34/47/3 48/63/3
f 38/51/16 42/55/16 8/10/16 29/38/16 33/46/16
f 39/52/17 38/51/17 33/46/17 31/42/17 32/44/17 30/39/17 58/73/17 47/61/17
f 35/48/3 40/53/3 42/55/3 38/51/3
f 14/17/18 60/75/18 68/83/18 5/6/18 43/56/18
f 63/78/19 52/67/19 51/66/19 62/77/19
f 5/6/18 68/83/18 63/78/18 10/12/18 44/57/18
f 66/81/20 36/49/20 49/64/20 65/80/20
f 60/75/21 14/17/21 45/58/21 59/74/21
f 57/72/22 54/69/22 53/68/22 56/71/22
f 39/52/23 57/72/23 56/71/23 47/62/23
f 54/69/22 60/75/22 59/74/22 53/68/22
f 10/12/24 63/78/24 62/77/24 46/59/24
f 64/79/25 46/60/25 62/77/25 51/66/25 65/80/25 49/64/25 61/76/25 24/28/25
f 52/67/19 66/81/19 65/80/19 51/66/19
f 30/40/26 55/70/26 45/58/26 59/74/26 53/68/26 56/71/26 47/62/26 58/73/26
f 66/81/27 67/82/27 34/47/27 48/63/27 36/49/27
f 67/82/27 57/72/27 39/52/27 50/65/27 34/47/27
f 63/78/28 68/83/28 69/84/28 52/67/28
f 68/83/28 60/75/28 54/69/28 69/84/28
f 69/84/28 54/69/28 57/72/28 67/82/28
f 52/67/28 69/84/28 67/82/28 66/81/28
